<svg aria-hidden="true" style="position: absolute; width: 0; height: 0; overflow: hidden;" version="1.1" xmlns="http://www.w3.org/2000/svg" xmlns:xlink="http://www.w3.org/1999/xlink">
<defs>
<symbol id="icon-location" viewBox="0 0 26 32">
<path fill="#fff" style="fill: var(--color1, #fff)" d="M6.179 13.574c0-3.816 3.093-6.909 6.909-6.909s6.909 3.093 6.909 6.909v0c0 3.816-3.093 6.909-6.909 6.909s-6.909-3.093-6.909-6.909v0zM13.088 8.847c-2.611 0-4.727 2.116-4.727 4.727s2.116 4.727 4.727 4.727v0c2.611 0 4.727-2.116 4.727-4.727s-2.116-4.727-4.727-4.727v0z"></path>
<path fill="#fff" style="fill: var(--color1, #fff)" d="M0.759 11.911c0.528-6.218 5.705-11.065 12.014-11.065 0 0 0 0 0 0h0.628c0 0 0 0 0 0 6.309 0 11.486 4.847 12.011 11.020l0.003 0.044c0.028 0.32 0.044 0.692 0.044 1.068 0 3.135-1.109 6.011-2.956 8.257l0.018-0.023-6.972 8.525c-0.588 0.715-1.472 1.167-2.463 1.167s-1.875-0.452-2.458-1.162l-0.004-0.006-6.972-8.525c-1.829-2.224-2.938-5.1-2.938-8.235 0-0.376 0.016-0.748 0.047-1.116l-0.003 0.048zM12.774 3.028c-5.167 0-9.407 3.969-9.838 9.025l-0.002 0.036c-0.023 0.266-0.037 0.576-0.037 0.889 0 2.609 0.923 5.003 2.46 6.872l-0.015-0.019 6.972 8.527c0.185 0.225 0.463 0.367 0.774 0.367s0.589-0.142 0.772-0.365l0.001-0.002 6.972-8.527c1.522-1.851 2.445-4.244 2.445-6.853 0-0.313-0.013-0.623-0.039-0.929l0.003 0.040c-0.433-5.092-4.673-9.062-9.84-9.062h-0.628z"></path>
</symbol>
<symbol id="icon-phone" viewBox="0 0 32 32">
<path fill="#fff" style="fill: var(--color1, #fff)" d="M4.787 12.389c3.071 6.578 8.337 11.703 14.837 14.518l0.21 0.081 1.287 0.573c0.454 0.208 0.985 0.329 1.543 0.329 1.259 0 2.375-0.614 3.064-1.559l0.008-0.011 2.146-2.971c0.049-0.068 0.079-0.153 0.079-0.245 0-0.132-0.061-0.25-0.155-0.327l-0.001-0.001-3.747-3.025c-0.072-0.058-0.164-0.093-0.264-0.093-0.138 0-0.261 0.067-0.338 0.17l-0.001 0.001-1.459 1.969c-0.233 0.311-0.6 0.51-1.014 0.51-0.189 0-0.368-0.041-0.528-0.115l0.008 0.003c-5.003-2.304-8.93-6.231-11.176-11.094l-0.058-0.14c-0.071-0.153-0.112-0.332-0.112-0.52 0-0.414 0.199-0.781 0.506-1.011l0.003-0.002 1.969-1.459c0.104-0.078 0.171-0.2 0.171-0.339 0-0.1-0.035-0.193-0.094-0.265l0.001 0.001-3.025-3.747c-0.078-0.096-0.196-0.156-0.327-0.156-0.092 0-0.177 0.030-0.246 0.080l0.001-0.001-2.988 2.156c-0.957 0.697-1.571 1.813-1.571 3.072 0 0.569 0.125 1.108 0.35 1.593l-0.010-0.023 0.931 2.050v0.002zM18.816 29.3c-7.267-3.139-12.989-8.71-16.245-15.665l-0.081-0.193-0.002-0.005-0.935-2.055c-0.357-0.767-0.566-1.665-0.566-2.612 0-2.1 1.025-3.961 2.602-5.109l0.018-0.013 2.984-2.156c0.478-0.348 1.077-0.557 1.725-0.557 0.924 0 1.749 0.425 2.289 1.091l0.004 0.005 3.023 3.747c0.407 0.501 0.654 1.147 0.654 1.851 0 0.967-0.466 1.825-1.185 2.363l-0.008 0.006-1.128 0.835c1.944 3.716 4.903 6.675 8.51 8.567l0.11 0.053 0.835-1.128c0.543-0.727 1.401-1.193 2.368-1.193 0.704 0 1.35 0.247 1.856 0.658l-0.005-0.004 3.747 3.023c0.672 0.545 1.097 1.37 1.097 2.294 0 0.648-0.209 1.248-0.564 1.734l0.006-0.008-2.147 2.971c-1.161 1.593-3.021 2.617-5.119 2.617-0.931 0-1.815-0.201-2.61-0.563l0.040 0.016-1.275-0.569z"></path>
<path fill="#fff" style="fill: var(--color1, #fff)" d="M27.741 2.577c0.237 0.236 0.371 0.559 0.371 0.893v6.451c0 0.698-0.566 1.263-1.263 1.263s-1.263-0.566-1.263-1.263v0-3.402l-5.32 5.322c-0.229 0.228-0.544 0.369-0.893 0.369-0.698 0-1.264-0.566-1.264-1.264 0-0.349 0.142-0.666 0.371-0.894l5.319-5.319h-3.397c-0.698 0-1.263-0.566-1.263-1.263s0.566-1.263 1.263-1.263v0h6.447c0.349 0 0.664 0.142 0.893 0.37v0z"></path>
</symbol>
<symbol id="icon-clock" viewBox="0 0 32 32">
<path fill="#fff" style="fill: var(--color1, #fff)" d="M16 5.469c-6.407 0-11.6 5.194-11.6 11.6s5.194 11.6 11.6 11.6v0c6.407 0 11.6-5.194 11.6-11.6s-5.194-11.6-11.6-11.6v0zM2 17.069c0-7.732 6.268-14 14-14s14 6.268 14 14v0c0 7.732-6.268 14-14 14s-14-6.268-14-14v0z"></path>
<path fill="#fff" style="fill: var(--color1, #fff)" d="M16 7.869c0.663 0 1.2 0.537 1.2 1.2v0 7.334l4.237 2.648c0.341 0.216 0.564 0.591 0.564 1.018 0 0.663-0.537 1.2-1.2 1.2-0.236 0-0.456-0.068-0.642-0.186l0.005 0.003-4.8-3c-0.34-0.216-0.563-0.59-0.563-1.017 0-0 0-0 0-0.001v0-8c0-0.663 0.537-1.2 1.2-1.2v0zM7.248 1.821c0.217 0.217 0.351 0.517 0.351 0.848s-0.134 0.631-0.351 0.848v0l-4 4c-0.214 0.2-0.502 0.322-0.818 0.322-0.663 0-1.2-0.537-1.2-1.2 0-0.316 0.123-0.604 0.323-0.819l-0.001 0.001 4-4c0.217-0.217 0.517-0.351 0.848-0.351s0.631 0.134 0.848 0.351v0zM24.752 1.821c-0.217 0.217-0.351 0.517-0.351 0.848s0.134 0.631 0.351 0.848v0l4 4c0.22 0.235 0.532 0.382 0.878 0.382 0.663 0 1.2-0.537 1.2-1.2 0-0.346-0.147-0.658-0.381-0.877l-0.001-0.001-4-4c-0.217-0.217-0.517-0.351-0.848-0.351s-0.631 0.134-0.848 0.351v0z"></path>
</symbol>
<symbol id="icon-envelope" viewBox="0 0 32 32">
<path fill="#fff" style="fill: var(--color1, #fff)" d="M1.283 10.165c-0.448 4.165-0.429 8.968 0.195 13.115 0.353 2.287 2.209 4.049 4.512 4.255l0.019 0.001 2.416 0.21c5.038 0.438 10.106 0.438 15.144 0l2.416-0.21c2.323-0.207 4.178-1.969 4.528-4.228l0.004-0.028c0.624-4.147 0.643-8.95 0.195-13.115-0.085-0.732-0.154-1.227-0.23-1.718l0.035 0.272c-0.354-2.287-2.21-4.048-4.514-4.253l-0.019-0.001-2.416-0.208c-2.269-0.209-4.906-0.329-7.572-0.329s-5.303 0.119-7.908 0.353l0.336-0.024-2.416 0.208c-2.322 0.208-4.177 1.969-4.526 4.228l-0.004 0.028c-0.072 0.482-0.138 0.963-0.195 1.446zM8.634 6.645c2.206-0.203 4.772-0.319 7.364-0.319s5.158 0.116 7.691 0.343l-0.327-0.024 2.416 0.21c1.208 0.106 2.186 1.024 2.365 2.221l0.054 0.374-8.896 4.944c-0.952 0.539-2.090 0.856-3.303 0.856s-2.351-0.317-3.337-0.874l0.034 0.018-8.896-4.944c0.016-0.125 0.035-0.25 0.054-0.374 0.185-1.193 1.153-2.112 2.355-2.22l0.010-0.001 2.416-0.21zM28.49 12.032c0.108 1.19 0.17 2.574 0.17 3.972 0 2.442-0.188 4.84-0.55 7.18l0.033-0.261c-0.184 1.194-1.152 2.114-2.355 2.222l-0.010 0.001-2.416 0.21c-2.206 0.203-4.772 0.319-7.364 0.319s-5.158-0.116-7.691-0.343l0.327 0.024-2.416-0.21c-1.212-0.109-2.181-1.028-2.363-2.208l-0.002-0.015c-0.33-2.081-0.518-4.482-0.518-6.926 0-1.396 0.061-2.777 0.182-4.142l-0.013 0.177 8.026 4.458c1.288 0.729 2.828 1.158 4.468 1.158s3.18-0.429 4.514-1.182l-0.046 0.024 8.026-4.458z"></path>
</symbol>
<symbol id="icon-youtube" viewBox="0 0 32 32">
<path fill="#fff" style="fill: var(--color1, #fff)" d="M13.654 10.701c-0.16-0.098-0.354-0.156-0.561-0.156-0.602 0-1.091 0.488-1.091 1.091 0 0.001 0 0.001 0 0.001v-0 8.727c0 0.602 0.488 1.091 1.091 1.091 0.207 0 0.401-0.058 0.566-0.158l-0.005 0.003 7.273-4.364c0.32-0.194 0.531-0.54 0.531-0.936s-0.211-0.742-0.526-0.933l-0.005-0.003-7.273-4.364zM18.244 16.001l-4.061 2.436v-4.873l4.061 2.435z"></path>
<path fill="#fff" style="fill: var(--color1, #fff)" d="M23.319 5.297c-2.191-0.182-4.742-0.286-7.318-0.286s-5.127 0.104-7.65 0.307l0.332-0.022-3.258 0.255c-1.994 0.16-3.597 1.651-3.928 3.576l-0.004 0.026c-0.361 2.059-0.568 4.429-0.568 6.847s0.207 4.789 0.603 7.094l-0.035-0.247c0.335 1.951 1.938 3.441 3.916 3.6l0.015 0.001 3.258 0.255c4.873 0.381 9.764 0.381 14.636 0l3.258-0.255c1.994-0.16 3.597-1.651 3.928-3.576l0.004-0.026c0.756-4.534 0.756-9.161 0-13.695-0.335-1.951-1.938-3.441-3.916-3.6l-0.015-0.001-3.258-0.255zM8.854 7.472c2.14-0.178 4.632-0.279 7.148-0.279s5.008 0.101 7.472 0.3l-0.324-0.021 3.258 0.256c0.983 0.076 1.788 0.813 1.949 1.785 0.342 1.95 0.538 4.196 0.538 6.487s-0.196 4.537-0.571 6.721l0.033-0.234c-0.166 0.967-0.96 1.707-1.942 1.786l-0.008 0-3.258 0.256c-4.758 0.372-9.537 0.372-14.295 0l-3.258-0.256c-0.988-0.079-1.783-0.818-1.947-1.772l-0.002-0.013c-0.342-1.95-0.538-4.196-0.538-6.487s0.196-4.537 0.571-6.721l-0.033 0.234c0.166-0.967 0.96-1.707 1.942-1.786l0.008-0 3.258-0.256z"></path>
</symbol>
<symbol id="icon-telegram" viewBox="0 0 35 32">
<path fill="#fff" style="fill: var(--color1, #fff)" d="M8.062 18.559l-5.353-1.803c-0.063-0.025-0.207-0.084-0.276-0.117-0.15-0.071-0.356-0.181-0.572-0.334-0.394-0.279-1.042-0.859-1.16-1.804-0.148-1.184 0.732-1.902 1.114-2.164 0.24-0.164 0.473-0.282 0.639-0.357 0.085-0.039 0.158-0.069 0.213-0.090 0.027-0.011 0.050-0.019 0.068-0.026l28.172-11.052c0.026-0.011 0.060-0.024 0.102-0.041 0.083-0.032 0.198-0.074 0.336-0.118 0.264-0.084 0.658-0.189 1.084-0.222 0.395-0.030 1.020-0.014 1.581 0.351 0.657 0.428 0.936 1.132 0.936 1.873 0 0.083-0.008 0.165-0.024 0.246l-5.019 25.306c-0.015 0.076-0.037 0.151-0.066 0.223l-0.001 0.003-0.001 0.003-0.003 0.006-0.006 0.014-0.016 0.037c-0.012 0.028-0.028 0.062-0.049 0.103-0.040 0.080-0.096 0.185-0.171 0.303-0.147 0.231-0.382 0.543-0.73 0.821-0.355 0.284-0.832 0.536-1.433 0.618-0.602 0.082-1.241-0.018-1.902-0.307-0.094-0.041-0.182-0.093-0.263-0.155l-5.498-4.215-4.768 2.973c-0.032 0.022-0.073 0.048-0.121 0.075-0.094 0.054-0.228 0.121-0.392 0.177-0.308 0.104-0.799 0.188-1.338-0.015-0.005-0.002-0.009-0.003-0.014-0.005-0.105-0.036-0.205-0.084-0.3-0.143-0.188-0.117-0.349-0.272-0.489-0.449-0.269-0.343-0.516-0.845-0.749-1.583-0.188-0.597-1.042-2.683-1.888-4.707-0.415-0.992-0.817-1.944-1.115-2.647-0.122-0.288-0.227-0.535-0.308-0.725-0.074-0.011-0.149-0.028-0.222-0.053zM31.874 3.146l-0.004 0.002c-0.014 0.006-0.028 0.012-0.042 0.018l-28.184 11.056c-0.015 0.006-0.030 0.011-0.044 0.017l-0.016 0.006c-0.018 0.007-0.048 0.019-0.086 0.037-0.022 0.010-0.044 0.020-0.067 0.032 0.032 0.018 0.062 0.033 0.089 0.046 0.026 0.012 0.045 0.021 0.056 0.025l5.293 1.782c0.097 0.033 0.187 0.076 0.27 0.128l17.493-10.24c0.013-0.008 0.029-0.017 0.050-0.029 0.040-0.022 0.094-0.052 0.16-0.085 0.121-0.062 0.315-0.153 0.534-0.221 0.152-0.047 0.601-0.18 1.086-0.024 0.299 0.096 0.61 0.303 0.811 0.652 0.1 0.174 0.154 0.348 0.18 0.508 0.069 0.252 0.058 0.5 0.004 0.715-0.116 0.462-0.441 0.823-0.736 1.099-0.253 0.236-3.53 3.396-6.762 6.515-1.612 1.555-3.207 3.095-4.4 4.246l-0.783 0.756 9.89 7.582c0.227 0.081 0.361 0.077 0.423 0.069 0.074-0.010 0.134-0.039 0.196-0.088 0.069-0.055 0.13-0.13 0.175-0.201l0.002-0.003 4.868-24.544c-0.072 0.017-0.145 0.038-0.216 0.060-0.080 0.025-0.146 0.050-0.189 0.066-0.022 0.008-0.037 0.015-0.045 0.018l-0.003 0.001zM17.623 24.020l-1.973-1.513-0.478 3.041 2.451-1.528zM13.84 19.506l1.962-1.894c1.193-1.151 2.788-2.691 4.4-4.247l1.638-1.58-10.981 6.428 0.059 0.139c0.299 0.706 0.703 1.661 1.12 2.659 0.312 0.746 0.638 1.531 0.935 2.259l0.477-3.032c0.046-0.292 0.189-0.545 0.391-0.732z"></path>
</symbol>
<symbol id="icon-linkedIn" viewBox="0 0 32 32">
<path fill="#fff" style="fill: var(--color1, #fff)" d="M4.571 0.381c-2.314 0-4.19 1.876-4.19 4.19s1.876 4.19 4.19 4.19v0c2.314 0 4.19-1.876 4.19-4.19s-1.876-4.19-4.19-4.19v0zM2.667 4.571c0-1.052 0.853-1.905 1.905-1.905s1.905 0.853 1.905 1.905v0c0 1.052-0.853 1.905-1.905 1.905s-1.905-0.853-1.905-1.905v0zM0.381 10.667c0-0.631 0.512-1.143 1.143-1.143v0h6.095c0.631 0 1.143 0.512 1.143 1.143v0 19.81c0 0.631-0.512 1.143-1.143 1.143v0h-6.095c-0.631 0-1.143-0.512-1.143-1.143v0-19.81zM2.667 11.81v17.524h3.81v-17.524h-3.81zM11.048 10.667c0-0.631 0.512-1.143 1.143-1.143v0h6.095c0.631 0 1.143 0.512 1.143 1.143v0 0.661l0.663-0.285c1.051-0.462 2.269-0.784 3.546-0.903l0.047-0.004c4.229-0.384 7.934 2.938 7.934 7.205v13.135c0 0.631-0.512 1.143-1.143 1.143v0h-6.095c-0.631 0-1.143-0.512-1.143-1.143v0-10.667c0-1.052-0.853-1.905-1.905-1.905s-1.905 0.853-1.905 1.905v0 10.667c0 0.631-0.512 1.143-1.143 1.143v0h-6.095c-0.631 0-1.143-0.512-1.143-1.143v0-19.81zM13.333 11.81v17.524h3.81v-9.524c0-2.314 1.876-4.19 4.19-4.19s4.19 1.876 4.19 4.19v0 9.524h3.81v-11.992c0-2.901-2.531-5.193-5.44-4.928-0.998 0.091-1.984 0.338-2.901 0.731l-2.255 0.968c-0.133 0.059-0.288 0.093-0.451 0.093-0.631 0-1.143-0.512-1.143-1.143 0-0 0-0.001 0-0.001v0-1.251h-3.81z"></path>
</symbol>
<symbol id="icon-twitter-x" viewBox="0 0 32 32">
<path fill="#fff" style="fill: var(--color1, #fff)" d="M26.028 0h5.417l-11.829 13.556 13.916 18.444h-10.896l-8.533-11.189-9.765 11.189h-5.419l12.654-14.5-13.351-17.5h11.173l7.714 10.224 8.917-10.224zM24.132 28.752h3.001l-19.371-25.673h-3.218l19.588 25.671z"></path>
</symbol>
<symbol id="icon-facebook" viewBox="0 0 32 32">
<path fill="#fff" style="fill: var(--color1, #fff)" d="M13.581 2.861c1.52-1.52 3.62-2.461 5.939-2.461h4.32c0.663 0 1.2 0.537 1.2 1.2v0 5.76c0 0.663-0.537 1.2-1.2 1.2v0h-4.32c-0.133 0-0.24 0.107-0.24 0.24v0 3.12h4.56c0 0 0 0 0.001 0 0.663 0 1.2 0.537 1.2 1.2 0 0.103-0.013 0.204-0.038 0.3l0.002-0.008-1.44 5.76c-0.135 0.526-0.605 0.909-1.164 0.909-0 0-0 0-0.001 0h-3.12v10.32c0 0.663-0.537 1.2-1.2 1.2v0h-5.76c-0.663 0-1.2-0.537-1.2-1.2v0-10.32h-3.12c-0.663 0-1.2-0.537-1.2-1.2v0-5.76c0-0.663 0.537-1.2 1.2-1.2v0h3.12v-3.12c0-2.319 0.941-4.419 2.461-5.939v0zM19.52 2.8c-3.314 0-6 2.686-6 6v0 4.32c0 0.663-0.537 1.2-1.2 1.2v0h-3.12v3.36h3.12c0.663 0 1.2 0.537 1.2 1.2v0 10.32h3.36v-10.32c0-0.663 0.537-1.2 1.2-1.2v0h3.382l0.84-3.36h-4.222c-0.663 0-1.2-0.537-1.2-1.2v0-4.32c0-1.458 1.182-2.64 2.64-2.64v0h3.12v-3.36h-3.12z"></path>
</symbol>
<symbol id="icon-instagram" viewBox="0 0 32 32">
<path fill="#fff" style="fill: var(--color1, #fff)" d="M22.4 8c0-0.884 0.716-1.6 1.6-1.6s1.6 0.716 1.6 1.6v0c0 0.884-0.716 1.6-1.6 1.6s-1.6-0.716-1.6-1.6v0z"></path>
<path fill="#fff" style="fill: var(--color1, #fff)" d="M16 8.4c-4.197 0-7.6 3.403-7.6 7.6s3.403 7.6 7.6 7.6v0c4.197 0 7.6-3.403 7.6-7.6s-3.403-7.6-7.6-7.6v0zM10.8 16c0-2.872 2.328-5.2 5.2-5.2s5.2 2.328 5.2 5.2v0c0 2.872-2.328 5.2-5.2 5.2s-5.2-2.328-5.2-5.2v0z"></path>
<path fill="#fff" style="fill: var(--color1, #fff)" d="M24.414 1.334c-2.525-0.296-5.449-0.465-8.414-0.465s-5.889 0.169-8.765 0.498l0.351-0.033c-3.219 0.358-5.818 2.896-6.195 6.131-0.317 2.562-0.498 5.528-0.498 8.536s0.181 5.974 0.532 8.887l-0.034-0.351c0.379 3.235 2.978 5.771 6.197 6.131 5.547 0.619 11.28 0.619 16.827 0 3.219-0.36 5.818-2.896 6.197-6.133 0.317-2.562 0.497-5.527 0.497-8.535s-0.181-5.973-0.532-8.886l0.034 0.351c-0.379-3.237-2.978-5.773-6.197-6.131zM7.854 3.718c2.444-0.287 5.276-0.45 8.146-0.45s5.702 0.163 8.487 0.482l-0.34-0.032c2.128 0.238 3.834 1.918 4.080 4.026 0.306 2.478 0.481 5.347 0.481 8.256s-0.175 5.778-0.514 8.596l0.033-0.34c-0.246 2.11-1.952 3.789-4.080 4.027-2.445 0.287-5.276 0.45-8.146 0.45s-5.702-0.163-8.487-0.482l0.341 0.032c-2.128-0.238-3.834-1.917-4.080-4.026-0.306-2.478-0.481-5.347-0.481-8.256s0.175-5.778 0.514-8.596l-0.033 0.34c0.246-2.109 1.952-3.789 4.080-4.027z"></path>
</symbol>
<symbol id="icon-arrow" viewBox="0 0 56 32">
<path fill="#fff" style="fill: var(--color1, #fff)" d="M53.996 1.28c0.789 0.79 1.276 1.88 1.276 3.084s-0.488 2.294-1.276 3.084l-23.276 23.272c-0.789 0.79-1.88 1.278-3.084 1.278s-2.295-0.488-3.084-1.278l-23.272-23.272c-0.789-0.789-1.277-1.88-1.277-3.084 0-2.409 1.953-4.361 4.361-4.361 1.204 0 2.295 0.488 3.084 1.277l20.192 20.184 20.184-20.184c0.789-0.791 1.881-1.28 3.086-1.28s2.297 0.489 3.086 1.28l0 0z"></path>
</symbol>
</defs>
</svg>
