<svg width="20" height="16" fill="none" xmlns="http://www.w3.org/2000/svg"><path fill-rule="evenodd" clip-rule="evenodd" d="M0 5.274C0 2.294 2.614 0 5.683 0c1.582 0 2.973.742 3.972 1.701C10.654.741 12.045 0 13.628 0c3.068 0 5.682 2.294 5.682 5.274 0 2.042-.87 3.837-2.076 5.354-1.204 1.515-2.779 2.8-4.287 3.845-.576.399-1.158.767-1.691 1.038-.501.255-1.077.489-1.6.489-.525 0-1.1-.234-1.601-.489a15.225 15.225 0 01-1.692-1.038c-1.508-1.045-3.083-2.33-4.287-3.845C.87 9.11 0 7.315 0 5.274zm5.683-3.619c-2.295 0-4.028 1.687-4.028 3.62 0 1.548.658 2.99 1.717 4.323 1.062 1.336 2.49 2.514 3.934 3.514.546.379 1.06.7 1.5.925.473.24.746.308.85.308.102 0 .376-.068.848-.309.44-.224.955-.545 1.5-.924 1.444-1 2.872-2.178 3.934-3.514 1.06-1.333 1.717-2.775 1.717-4.324 0-1.932-1.733-3.619-4.027-3.619-1.318 0-2.549.787-3.317 1.787a.827.827 0 01-1.312 0c-.768-1-1.999-1.787-3.316-1.787z" fill="#828897"/></svg>