<svg display="none" xmlns="http://www.w3.org/2000/svg">
<symbol id="facebook"  viewBox="0 0 20 35">
<path d="M14.0327 0.771484C11.7839 0.771484 9.62716 1.66482 8.03701 3.25498C6.44685 4.84513 5.55352 7.00184 5.55352 9.25065V13.9715H1.01602C0.788198 13.9715 0.603516 14.1562 0.603516 14.384V20.6173C0.603516 20.8451 0.788198 21.0298 1.01602 21.0298H5.55352V33.8173C5.55352 34.0451 5.7382 34.2298 5.96602 34.2298H12.1993C12.4272 34.2298 12.6118 34.0451 12.6118 33.8173V21.0298H17.1895C17.3788 21.0298 17.5438 20.901 17.5897 20.7174L19.1481 14.484C19.2131 14.2237 19.0162 13.9715 18.7479 13.9715H12.6118V9.25065C12.6118 8.87382 12.7615 8.51243 13.028 8.24597C13.2945 7.97951 13.6559 7.82982 14.0327 7.82982H18.7993C19.0272 7.82982 19.2118 7.64514 19.2118 7.41732V1.18398C19.2118 0.956167 19.0272 0.771484 18.7993 0.771484H14.0327Z"/>
</symbol>
<symbol id="telegram"  viewBox="0 0 37 33">
<path d="M30.8849 30.7814L30.8862 30.7783L30.9181 30.6985L36.4159 2.98021V2.89018C36.4159 2.19956 36.1607 1.59665 35.6054 1.23501C35.1194 0.918462 34.5606 0.895918 34.1688 0.925656C33.7545 0.957107 33.3638 1.06053 33.0933 1.14663C32.9541 1.19092 32.8377 1.2336 32.7544 1.26588C32.7126 1.28208 32.6787 1.29583 32.654 1.30607L32.6298 1.31626L1.97684 13.341L1.9684 13.344C1.95185 13.35 1.92996 13.3582 1.90351 13.3685C1.8508 13.389 1.77904 13.4184 1.69474 13.4566C1.52923 13.5316 1.30055 13.6473 1.06863 13.8062C0.674728 14.0759 -0.0753148 14.7145 0.0513358 15.7269C0.15624 16.5655 0.734296 17.0981 1.12401 17.3738C1.33291 17.5216 1.53277 17.6282 1.67912 17.6979C1.75328 17.7332 1.81626 17.7602 1.86317 17.7793C1.88669 17.7889 1.90636 17.7966 1.92157 17.8023L1.94105 17.8096L1.9535 17.8142L7.31645 19.6197C7.29835 19.9562 7.33172 20.2993 7.42095 20.6378L10.1073 30.8282C10.4258 32.0365 11.5189 32.8781 12.7684 32.8772C13.8885 32.8764 14.8818 32.1988 15.3038 31.1879L19.4979 26.7034L26.701 32.2258L26.8035 32.2705C27.4579 32.5561 28.0693 32.6466 28.6284 32.5702C29.1866 32.4939 29.6302 32.2599 29.9634 31.9933C30.2914 31.7309 30.5161 31.4348 30.6574 31.2119C30.7292 31.0987 30.7828 30.9991 30.8199 30.9242C30.8385 30.8866 30.8532 30.8547 30.8642 30.8299L30.8781 30.798L30.883 30.7862L30.8849 30.7814ZM10.08 19.9368C10.019 19.7052 10.1148 19.4607 10.317 19.3323L28.5074 7.7806C28.5074 7.7806 29.5773 7.13106 29.539 7.7806C29.539 7.7806 29.73 7.89531 29.1567 8.43014C28.6129 8.93811 16.1919 20.9301 14.9351 22.1435C14.8625 22.2136 14.8192 22.2939 14.7937 22.3914L12.7664 30.1272L10.08 19.9368Z"/>
</symbol>
<symbol id="instagram"  viewBox="0 0 44 45">
<path d="M22.0006 16.5413C18.7099 16.5413 16.0422 19.209 16.0422 22.4997C16.0422 25.7904 18.7099 28.458 22.0006 28.458C25.2913 28.458 27.9589 25.7904 27.9589 22.4997C27.9589 19.209 25.2913 16.5413 22.0006 16.5413Z" fill="#0087D2"/>
<path fill-rule="evenodd" clip-rule="evenodd" d="M12.4114 6.14904C18.733 5.44251 25.2683 5.44251 31.5898 6.14904C35.0702 6.53802 37.8774 9.28028 38.2859 12.7729C39.0417 19.2354 39.0417 25.764 38.2859 32.2265C37.8774 35.7191 35.0702 38.4613 31.5898 38.8503C25.2683 39.5568 18.733 39.5568 12.4114 38.8503C8.931 38.4613 6.12382 35.7191 5.71532 32.2265C4.95948 25.764 4.95948 19.2354 5.71532 12.7729C6.12382 9.28028 8.931 6.53802 12.4114 6.14904ZM31.1672 11.4997C30.1547 11.4997 29.3339 12.3205 29.3339 13.333C29.3339 14.3455 30.1547 15.1663 31.1672 15.1663C32.1798 15.1663 33.0006 14.3455 33.0006 13.333C33.0006 12.3205 32.1798 11.4997 31.1672 11.4997ZM13.2922 22.4997C13.2922 17.6902 17.1911 13.7913 22.0006 13.7913C26.8101 13.7913 30.7089 17.6902 30.7089 22.4997C30.7089 27.3092 26.8101 31.208 22.0006 31.208C17.1911 31.208 13.2922 27.3092 13.2922 22.4997Z" />
</symbol>
<symbol id="youtube"  viewBox="0 0 44 45">
<path fill-rule="evenodd" clip-rule="evenodd" d="M12.815 9.46625C18.9304 8.98781 25.0738 8.98781 31.1892 9.46625L35.2971 9.78764C37.5853 9.96665 39.4571 11.6815 39.8354 13.9453C40.7817 19.6094 40.7817 25.3912 39.8354 31.0553C39.4571 33.3191 37.5853 35.0339 35.2971 35.213L31.1892 35.5343C25.0738 36.0128 18.9304 36.0128 12.815 35.5343L8.70702 35.213C6.41888 35.0339 4.54701 33.3191 4.16877 31.0553C3.22239 25.3912 3.22239 19.6094 4.16877 13.9453C4.54701 11.6815 6.41888 9.96665 8.70702 9.78764L12.815 9.46625ZM18.3353 27.0289V17.9717C18.3353 17.5442 18.8017 17.2801 19.1683 17.5001L26.716 22.0287C27.072 22.2423 27.072 22.7583 26.716 22.9719L19.1683 27.5005C18.8017 27.7205 18.3353 27.4564 18.3353 27.0289Z"/>
</symbol>
<symbol id="twitter"  viewBox="0 0 44 52">
<path d="M10.2143 10C7.61406 10 5.5 12.1141 5.5 14.7143V38.2857C5.5 40.8859 7.61406 43 10.2143 43H33.7857C36.3859 43 38.5 40.8859 38.5 38.2857V14.7143C38.5 12.1141 36.3859 10 33.7857 10H10.2143ZM32.0989 16.1875L24.4529 24.9237L33.4469 36.8125H26.4049L20.8951 29.6011L14.5824 36.8125H11.0835L19.2598 27.465L10.6342 16.1875H17.8529L22.8397 22.7801L28.6 16.1875H32.0989ZM29.3145 34.7205L16.7996 18.169H14.715L27.3699 34.7205H29.3071H29.3145Z"/>
</symbol>
</svg>
