<svg display="none" xmlns="http://www.w3.org/2000/svg">
<symbol id="facebook"  viewBox="0 0 20 35">
<path d="M14.0327 0.771484C11.7839 0.771484 9.62716 1.66482 8.03701 3.25498C6.44685 4.84513 5.55352 7.00184 5.55352 9.25065V13.9715H1.01602C0.788198 13.9715 0.603516 14.1562 0.603516 14.384V20.6173C0.603516 20.8451 0.788198 21.0298 1.01602 21.0298H5.55352V33.8173C5.55352 34.0451 5.7382 34.2298 5.96602 34.2298H12.1993C12.4272 34.2298 12.6118 34.0451 12.6118 33.8173V21.0298H17.1895C17.3788 21.0298 17.5438 20.901 17.5897 20.7174L19.1481 14.484C19.2131 14.2237 19.0162 13.9715 18.7479 13.9715H12.6118V9.25065C12.6118 8.87382 12.7615 8.51243 13.028 8.24597C13.2945 7.97951 13.6559 7.82982 14.0327 7.82982H18.7993C19.0272 7.82982 19.2118 7.64514 19.2118 7.41732V1.18398C19.2118 0.956167 19.0272 0.771484 18.7993 0.771484H14.0327Z"/>
</symbol>
<symbol id="telegram"  viewBox="0 0 37 33">
<path fill-rule="evenodd" clip-rule="evenodd" d="M30.8849 30.7814L30.8862 30.7783L30.9181 30.6985L36.4159 2.98021V2.89018C36.4159 2.19956 36.1607 1.59665 35.6054 1.23501C35.1194 0.918462 34.5606 0.895918 34.1688 0.925656C33.7545 0.957107 33.3638 1.06053 33.0933 1.14663C32.9541 1.19092 32.8377 1.2336 32.7544 1.26588C32.7126 1.28208 32.6787 1.29583 32.654 1.30607L32.6298 1.31626L1.97684 13.341L1.9684 13.344C1.95185 13.35 1.92996 13.3582 1.90351 13.3685C1.8508 13.389 1.77904 13.4184 1.69474 13.4566C1.52923 13.5316 1.30055 13.6473 1.06863 13.8062C0.674728 14.0759 -0.0753148 14.7145 0.0513358 15.7269C0.15624 16.5655 0.734296 17.0981 1.12401 17.3738C1.33291 17.5216 1.53277 17.6282 1.67912 17.6979C1.75328 17.7332 1.81626 17.7602 1.86317 17.7793C1.88669 17.7889 1.90636 17.7966 1.92157 17.8023L1.94105 17.8096L1.9535 17.8142L7.31645 19.6197C7.29835 19.9562 7.33172 20.2993 7.42095 20.6378L10.1073 30.8282C10.4258 32.0365 11.5189 32.8781 12.7684 32.8772C13.8885 32.8764 14.8818 32.1988 15.3038 31.1879L19.4979 26.7034L26.701 32.2258L26.8035 32.2705C27.4579 32.5561 28.0693 32.6466 28.6284 32.5702C29.1866 32.4939 29.6302 32.2599 29.9634 31.9933C30.2914 31.7309 30.5161 31.4348 30.6574 31.2119C30.7292 31.0987 30.7828 30.9991 30.8199 30.9242C30.8385 30.8866 30.8532 30.8547 30.8642 30.8299L30.8781 30.798L30.883 30.7862L30.8849 30.7814ZM10.08 19.9368C10.019 19.7052 10.1148 19.4607 10.317 19.3323L28.5074 7.7806C28.5074 7.7806 29.5773 7.13106 29.539 7.7806C29.539 7.7806 29.73 7.89531 29.1567 8.43014C28.6129 8.93811 16.1919 20.9301 14.9351 22.1435C14.8625 22.2136 14.8192 22.2939 14.7937 22.3914L12.7664 30.1272L10.08 19.9368Z"/>
</symbol>
<symbol id="instagram"  viewBox="0 0 34 35">
<path d="M17.0006 11.5413C13.7099 11.5413 11.0422 14.209 11.0422 17.4997C11.0422 20.7904 13.7099 23.458 17.0006 23.458C20.2913 23.458 22.9589 20.7904 22.9589 17.4997C22.9589 14.209 20.2913 11.5413 17.0006 11.5413Z" fill="#0087D2"/>
<path fill-rule="evenodd" clip-rule="evenodd" d="M7.4114 1.14904C13.733 0.442509 20.2683 0.442509 26.5898 1.14904C30.0702 1.53802 32.8774 4.28028 33.2859 7.77288C34.0417 14.2354 34.0417 20.764 33.2859 27.2265C32.8774 30.7191 30.0702 33.4613 26.5898 33.8503C20.2683 34.5568 13.733 34.5568 7.4114 33.8503C3.931 33.4613 1.12382 30.7191 0.715324 27.2265C-0.0405247 20.764 -0.0405247 14.2354 0.715324 7.77288C1.12382 4.28028 3.931 1.53802 7.4114 1.14904ZM26.1672 6.49968C25.1547 6.49968 24.3339 7.32049 24.3339 8.33301C24.3339 9.34553 25.1547 10.1663 26.1672 10.1663C27.1798 10.1663 28.0006 9.34553 28.0006 8.33301C28.0006 7.32049 27.1798 6.49968 26.1672 6.49968ZM8.29225 17.4997C8.29225 12.6902 12.1911 8.79134 17.0006 8.79134C21.8101 8.79134 25.7089 12.6902 25.7089 17.4997C25.7089 22.3092 21.8101 26.208 17.0006 26.208C12.1911 26.208 8.29225 22.3092 8.29225 17.4997Z"/>
</symbol>
<symbol id="youtube"  viewBox="0 0 38 27">
<path fill-rule="evenodd" clip-rule="evenodd" d="M9.81497 0.466252C15.9304 -0.0121883 22.0738 -0.012188 28.1892 0.466252L32.2971 0.787639C34.5853 0.966652 36.4571 2.68154 36.8354 4.94529C37.7817 10.6094 37.7817 16.3912 36.8354 22.0553C36.4571 24.3191 34.5853 26.0339 32.2971 26.213L28.1892 26.5343C22.0738 27.0128 15.9304 27.0128 9.81497 26.5343L5.70702 26.213C3.41888 26.0339 1.54701 24.3191 1.16877 22.0553C0.22239 16.3912 0.22239 10.6094 1.16877 4.94529C1.54701 2.68154 3.41888 0.966652 5.70702 0.787639L9.81497 0.466252ZM15.3353 18.0289V8.97171C15.3353 8.54419 15.8017 8.28013 16.1683 8.50008L23.716 13.0287C24.072 13.2423 24.072 13.7583 23.716 13.9719L16.1683 18.5005C15.8017 18.7205 15.3353 18.4564 15.3353 18.0289Z"/>
</symbol>
<symbol id="twitter"  viewBox="0 0 34 33">
<path d="M5.21429 0C2.61406 0 0.5 2.11406 0.5 4.71429V28.2857C0.5 30.8859 2.61406 33 5.21429 33H28.7857C31.3859 33 33.5 30.8859 33.5 28.2857V4.71429C33.5 2.11406 31.3859 0 28.7857 0H5.21429ZM27.0989 6.1875L19.4529 14.9237L28.4469 26.8125H21.4049L15.8951 19.6011L9.58237 26.8125H6.08348L14.2598 17.465L5.63415 6.1875H12.8529L17.8397 12.7801L23.6 6.1875H27.0989ZM24.3145 24.7205L11.7996 8.16897H9.71496L22.3699 24.7205H24.3071H24.3145Z" />
</symbol>
</svg>
