<svg aria-hidden="true" style="position: absolute; width: 0; height: 0; overflow: hidden;" version="1.1" xmlns="http://www.w3.org/2000/svg" xmlns:xlink="http://www.w3.org/1999/xlink">
<defs>
<symbol id="icon-user" viewBox="0 0 30 32">
<path d="M7.68 8.762c0-4.173 3.383-7.556 7.556-7.556s7.556 3.383 7.556 7.556v0c0 4.173-3.383 7.556-7.556 7.556s-7.556-3.383-7.556-7.556v0zM15.238 3.874c-2.7 0-4.888 2.189-4.888 4.888s2.189 4.888 4.888 4.888v0c2.7 0 4.888-2.189 4.888-4.888s-2.189-4.888-4.888-4.888v0zM8.125 21.65c-2.209 0-4 1.791-4 4v0 2.114c0 0.030 0.023 0.059 0.055 0.064 7.322 1.196 14.79 1.196 22.112 0 0.031-0.005 0.055-0.032 0.055-0.064v-2.114c0-2.209-1.791-4-4-4v0h-0.605c-0.049 0-0.096 0.009-0.14 0.024l0.003-0.001-1.539 0.503c-1.442 0.487-3.103 0.768-4.829 0.768s-3.387-0.281-4.939-0.8l0.11 0.032-1.539-0.503c-0.041-0.014-0.088-0.022-0.137-0.023h-0.607zM1.458 25.65c0-3.682 2.985-6.667 6.667-6.667v0h0.606c0.328 0 0.654 0.052 0.965 0.154l1.539 0.503c1.195 0.404 2.57 0.637 4.001 0.637s2.806-0.233 4.092-0.663l-0.091 0.026 1.539-0.503c0.312-0.102 0.637-0.152 0.966-0.152h0.605c3.681 0 6.666 2.984 6.667 6.665v2.114c0 1.338-0.969 2.481-2.292 2.697-3.453 0.593-7.43 0.931-11.486 0.931s-8.033-0.339-11.904-0.989l0.418 0.058c-1.308-0.219-2.292-1.343-2.292-2.696 0-0 0-0 0-0.001v0-2.114z"></path>
</symbol>
<symbol id="icon-burger-button" viewBox="0 0 44 32">
<path  d="M42.487 16c0-1.105-0.896-2-2-2h-37.334c-1.105 0-2 0.895-2 2s0.895 2 2 2v0h37.334c1.104 0 2-0.896 2-2zM42.487 2.666c0-1.104-0.896-2-2-2h-37.334c-1.105 0-2 0.895-2 2s0.895 2 2 2v0h37.334c1.104 0 2-0.895 2-2zM42.487 29.334c0-1.105-0.896-2-2-2h-37.334c-1.105 0-2 0.895-2 2s0.895 2 2 2v0h37.334c1.104 0 2-0.896 2-2z"></path>
</symbol>
<symbol id="icon-btn-arrow" viewBox="0 0 56 32">
<path d="M53.996 30.72c-0.789 0.791-1.881 1.28-3.086 1.28s-2.297-0.489-3.086-1.28l-20.188-20.184-20.188 20.184c-0.789 0.789-1.88 1.277-3.084 1.277-2.409 0-4.361-1.953-4.361-4.361 0-1.204 0.488-2.295 1.277-3.084l23.272-23.272c0.789-0.79 1.88-1.278 3.084-1.278s2.295 0.488 3.084 1.278l23.28 23.272c0.789 0.79 1.276 1.88 1.276 3.084s-0.488 2.294-1.276 3.084l0-0z"></path>
</symbol>
<symbol id="icon-cross" viewBox="0 0 32 32">
<path d="M24.48 26.373l-8.48-8.493-8.48 8.493-1.893-1.893 8.493-8.48-8.493-8.48 1.893-1.893 8.48 8.493 8.48-8.48 1.88 1.88-8.48 8.48 8.48 8.48-1.88 1.893z"></path>
</symbol>
<symbol id="statistics_icon_4" viewBox="0 0 32 32">
<path d="M7.802 22.322c-0.446-0.139-0.853-0.252-1.252-0.393-1.372-0.487-2.616-1.179-3.599-2.282-0.87-0.976-1.279-2.157-1.5-3.412-0.549-3.114 0.233-5.855 2.342-8.215 0.118-0.132 0.243-0.258 0.375-0.376 0.433-0.391 0.763-0.281 0.925 0.274 0.315 1.077 0.592 2.169 0.989 3.216 0.79 2.086 1.922 3.967 3.578 5.5 0.075 0.069 0.155 0.134 0.272 0.235-0.094-0.472-0.198-0.889-0.26-1.313-0.43-2.93 0.34-5.566 1.997-7.972 0.096-0.139 0.342-0.244 0.516-0.241 0.244 0.005 0.329 0.237 0.374 0.47 0.138 0.724 0.252 1.457 0.446 2.166 0.303 1.099 1.055 1.886 1.907 2.602 0.675 0.568 1.307 1.187 1.964 1.775 0.069 0.062 0.2 0.116 0.282 0.095 1.51-0.402 2.839 0.71 3.179 1.944 0.094 0.342 0.252 0.51 0.556 0.606 0.138 0.044 0.268 0.108 0.441 0.179 0.381-2.201 0.481-4.365-0.123-6.478-0.526 0-0.992 0.015-1.458-0.003-0.992-0.038-1.754-0.508-2.171-1.393-0.342-0.728-0.585-1.509-0.811-2.284-0.195-0.67-0.448-1.295-0.889-1.838-0.142-0.176-0.26-0.357-0.144-0.596 0.113-0.234 0.319-0.269 0.549-0.278 1.168-0.045 2.307 0.091 3.389 0.561 1.869 0.811 2.776 2.477 2.412 4.474-0.087 0.477-0.087 0.909 0.064 1.388 0.208 0.658 0.281 1.36 0.414 2.056 0.148-0.218 0.292-0.477 0.48-0.698 0.24-0.282 0.346-0.577 0.352-0.956 0.008-0.433 0.080-0.874 0.194-1.292 0.435-1.602 1.699-2.636 3.393-2.846 1.126-0.139 2.221-0.009 3.3 0.314 0.217 0.065 0.416 0.148 0.462 0.405 0.045 0.255-0.103 0.407-0.288 0.543-0.554 0.41-0.96 0.939-1.296 1.54-0.313 0.562-0.637 1.125-1.019 1.642-0.895 1.21-1.874 1.514-3.315 1.095-0.070-0.020-0.14-0.041-0.209-0.064-0.404-0.132-0.727-0.016-0.969 0.346-0.733 1.098-1.109 2.333-1.265 3.62-0.158 1.3-0.202 2.613-0.294 3.921-0.008 0.114-0.002 0.229-0.010 0.343-0.023 0.308-0.197 0.488-0.462 0.483-0.262-0.004-0.445-0.195-0.443-0.498 0.002-0.625 0.020-1.25 0.032-1.874 0.002-0.072 0.009-0.143 0.013-0.216-0.536 0.017-0.74 0.173-0.908 0.647-0.611 1.717-1.269 3.412-2.318 4.925-1.16 1.674-2.801 2.491-4.784 2.704-1.502 0.162-2.968-0.035-4.419-0.421-0.148-0.039-0.348-0.010-0.486 0.061-0.966 0.501-2.011 0.738-3.068 0.91-0.965 0.156-1.94 0.252-2.911 0.37-0.144 0.017-0.292 0.023-0.437 0.016-0.307-0.017-0.511-0.251-0.442-0.55 0.318-1.386 0.144-2.752-0.134-4.118-0.116-0.569 0.17-0.821 0.723-0.631 1.092 0.377 2.203 0.619 3.366 0.549 0.842-0.051 1.63-0.278 2.396-0.739zM4.351 8.786c-0.129 0.15-0.241 0.268-0.339 0.396-1.612 2.11-2.118 4.467-1.628 7.070 0.353 1.876 1.34 3.262 3.020 4.163 1.598 0.856 3.324 1.252 5.112 1.387 0.775 0.059 1.558 0.018 2.338 0.015 0.317-0.001 0.534 0.153 0.557 0.422 0.022 0.262-0.172 0.468-0.483 0.506-0.040 0.006-0.086 0.009-0.133 0.009-0.008 0-0.016-0-0.024-0l0.001 0c-1.111-0.044-2.223-0.075-3.332-0.146-0.25-0.016-0.433 0.024-0.628 0.164-1.518 1.091-3.211 1.421-5.039 1.122-0.459-0.075-0.913-0.178-1.348-0.264 0.045 1.063 0.089 2.126 0.138 3.266 1.119-0.183 2.275-0.324 3.408-0.573 0.702-0.154 1.385-0.433 2.043-0.731 0.288-0.13 0.51-0.192 0.815-0.102 1.45 0.432 2.927 0.636 4.441 0.449 1.649-0.203 3.013-0.902 3.978-2.299 1.027-1.489 1.674-3.157 2.244-4.854 0.158-0.471 0.346-0.836 0.869-0.93 0.009-0.002 0.012-0.033 0.023-0.064-0.052-0.027-0.103-0.063-0.161-0.080-0.465-0.132-0.687-0.383-0.746-0.917-0.102-0.923-1.234-1.948-2.449-1.294-0.541 0.292-0.931 0.722-1.254 1.231-0.273 0.43-0.532 0.872-0.841 1.276-0.521 0.684-1.221 1.044-2.093 1.064-1.189 0.028-2.179-0.462-3.089-1.165-1.667-1.287-2.862-2.95-3.807-4.808-0.692-1.359-1.192-2.79-1.593-4.313h0.001zM11.827 9.163c-0.127-0.037-0.16-0.048-0.193-0.059l0.093 0.027c-0.25 0.613-0.534 1.215-0.743 1.84-0.734 2.192-0.706 4.372 0.185 6.521 0.053 0.128 0.124 0.282 0.232 0.352 0.962 0.62 2.289 0.357 2.941-0.574 0.562-0.803 0.953-1.736 1.812-2.306-0.507-0.665-1.121-1.142-1.743-1.615-1.147-0.873-2.006-1.957-2.384-3.376-0.072-0.269-0.135-0.541-0.202-0.811zM17.085 5.237c0.163 0.403 0.328 0.761 0.452 1.132 0.125 0.374 0.188 0.768 0.316 1.141 0.156 0.461 0.31 0.931 0.538 1.358 0.438 0.816 1.368 1.144 2.292 0.851-0.069-0.097-0.122-0.201-0.201-0.278-0.356-0.35-0.724-0.699-1.098-1.042l-0.032-0.029c-0.251-0.227-0.315-0.487-0.141-0.705s0.447-0.232 0.716-0.018c0.26 0.208 0.51 0.428 0.762 0.645 0.184 0.159 0.363 0.323 0.548 0.487 0.062-1.118-0.303-2.047-1.262-2.698-0.863-0.586-1.842-0.786-2.891-0.845zM29.229 8.002c-0.39-0.088-0.837-0.138-1.297-0.138-0.29 0-0.575 0.020-0.853 0.059l0.032-0.004c-0.564 0.078-1.096 0.248-1.561 0.583-0.734 0.529-1.072 1.274-1.182 2.156 0.572-0.334 1.112-0.662 1.664-0.968 0.251-0.139 0.498-0.061 0.624 0.155 0.134 0.227 0.064 0.487-0.183 0.643-0.149 0.094-0.313 0.163-0.462 0.258-0.394 0.248-0.784 0.504-1.218 0.783 1.135 0.478 1.871 0.312 2.565-0.568 0.288-0.365 0.522-0.775 0.769-1.171 0.368-0.588 0.728-1.18 1.102-1.789h0.001z"></path>
<path d="M17.36 17.144c0.002-0.355 0.291-0.642 0.646-0.642 0.005 0 0.010 0 0.015 0h-0.001c0.356 0.010 0.641 0.3 0.641 0.658 0 0.003-0 0.006-0 0.009v-0c-0.011 0.357-0.302 0.642-0.661 0.642-0.002 0-0.004 0-0.007-0h0c-0.362-0.007-0.641-0.299-0.634-0.667zM18.022 16.791c-0.125 0.159-0.268 0.264-0.256 0.345 0.017 0.105 0.157 0.19 0.244 0.284 0.083-0.087 0.224-0.166 0.235-0.261 0.011-0.091-0.112-0.198-0.222-0.368z"></path>
</symbol>
<symbol id="statistics_icon_3" viewBox="0 0 32 32">
<path d="M11.411 27.053l-5.332-8.193c-0.101 0.064-0.194 0.121-0.286 0.181l-3.56 2.316c-0.096 0.062-0.189 0.135-0.294 0.178-0.226 0.092-0.439 0.062-0.578-0.154-0.143-0.223-0.105-0.44 0.098-0.613 0.087-0.074 0.189-0.129 0.285-0.192l4.056-2.64c0.435-0.284 0.614-0.246 0.896 0.184 0.171 0.262 0.348 0.519 0.508 0.787 0.094 0.156 0.19 0.176 0.358 0.11 0.759-0.297 1.403-0.77 2.008-1.3 0.588-0.514 1.157-1.051 1.758-1.55 0.659-0.548 1.399-0.933 2.277-1.006 0.644-0.054 1.231 0.142 1.821 0.356 0.829 0.301 1.654 0.622 2.502 0.861 0.408 0.115 0.867 0.092 1.3 0.074 0.568-0.023 1.125-0.022 1.664 0.178 1.074 0.399 1.48 1.371 1.015 2.416-0.017 0.038-0.029 0.077-0.064 0.17 0.162-0.052 0.288-0.085 0.408-0.132 1.624-0.645 3.239-1.31 4.872-1.929 0.486-0.189 1.054-0.337 1.643-0.418l0.040-0.005c0.578-0.078 1.14 0.068 1.473 0.612 0.331 0.54 0.249 1.111-0.037 1.638-0.162 0.297-0.387 0.57-0.626 0.812-0.975 0.985-2.132 1.73-3.31 2.44-1.311 0.791-2.652 1.541-4.1 2.044-2.248 0.782-4.557 1.092-6.911 0.531-1.040-0.248-1.956-0.037-2.814 0.552-0.239 0.164-0.473 0.336-0.731 0.519 0.222 0.342 0.432 0.659 0.636 0.982 0.208 0.33 0.166 0.556-0.156 0.768-1.437 0.94-2.878 1.877-4.319 2.81-0.297 0.192-0.551 0.156-0.712-0.083-0.164-0.244-0.084-0.498 0.23-0.703 1.23-0.802 2.461-1.602 3.691-2.402 0.087-0.056 0.171-0.116 0.292-0.198l-0.001 0.001zM11.24 25.097c0.308-0.211 0.568-0.401 0.838-0.576 1.015-0.657 2.104-0.918 3.303-0.629 2.198 0.529 4.349 0.259 6.45-0.461 1.471-0.504 2.824-1.274 4.149-2.079 1.033-0.626 2.045-1.289 2.913-2.141 0.206-0.202 0.405-0.428 0.544-0.678 0.31-0.556 0.072-0.95-0.556-0.886-0.448 0.045-0.909 0.15-1.323 0.325-2.107 0.894-4.21 1.79-6.411 2.434-1.315 0.384-2.651 0.63-4.025 0.627-0.346 0-0.552-0.173-0.556-0.456-0.003-0.28 0.2-0.441 0.547-0.464 0.477-0.031 0.958-0.049 1.429-0.124 0.841-0.134 1.653-0.368 2.274-1.001 0.638-0.648 0.448-1.351-0.438-1.544-0.389-0.085-0.806-0.037-1.209-0.063-0.528-0.033-1.078 0-1.576-0.139-0.918-0.257-1.817-0.592-2.703-0.946-0.976-0.391-1.864-0.254-2.676 0.362-0.554 0.42-1.071 0.892-1.591 1.357-0.731 0.654-1.473 1.29-2.373 1.708-0.126 0.059-0.253 0.117-0.395 0.181 1.136 1.744 2.252 3.46 3.382 5.194h0.002zM23.668 2.864c0.69-0.71 1.504-1.128 2.465-1.28 2.267-0.357 4.518 1.468 4.63 3.758 0.062 1.282-0.359 2.364-1.268 3.268-1.786 1.778-3.566 3.564-5.349 5.345-0.396 0.395-0.566 0.395-0.96 0.002-1.826-1.827-3.667-3.638-5.474-5.484-2.141-2.188-1.182-5.87 1.752-6.745 1.47-0.438 2.797-0.113 3.952 0.898 0.078 0.068 0.152 0.142 0.251 0.236l0.001 0.001zM23.682 13.178c0.208-0.231 0.382-0.439 0.572-0.63 1.572-1.578 3.162-3.141 4.718-4.736 1.047-1.072 1.165-2.713 0.343-3.939-0.825-1.231-2.378-1.717-3.776-1.19-0.594 0.224-1.035 0.645-1.468 1.085-0.285 0.29-0.511 0.283-0.806 0.002-0.172-0.166-0.336-0.341-0.515-0.501-1.076-0.964-2.717-1.062-3.902-0.236-1.629 1.135-1.839 3.406-0.424 4.848 1.436 1.464 2.898 2.902 4.347 4.355 0.293 0.294 0.578 0.597 0.91 0.942z"></path>
</symbol>
<symbol id="statistics_icon_2" viewBox="0 0 32 32">
<path d="M14.090 21.643c-0.578 0.267-1.106 0.532-1.652 0.753-0.23 0.093-0.509 0.163-0.747 0.123-0.56-0.094-0.868-0.68-0.746-1.281 0.022-0.105 0.018-0.266-0.045-0.328-0.755-0.745-1.524-1.476-2.277-2.199-0.002 0.022-0.018 0.109-0.016 0.195 0.088 2.476-0.198 4.93-0.406 7.389-0.066 0.789-0.131 1.578-0.199 2.366-0.033 0.371-0.188 0.519-0.562 0.52-1.052 0.004-2.104 0.004-3.156 0-0.423-0.001-0.568-0.152-0.604-0.58-0.186-2.231-0.374-4.462-0.566-6.737-0.139 0-0.27 0.003-0.401 0-0.821-0.027-1.423-0.574-1.437-1.387-0.026-1.49-0.026-2.98 0-4.47 0.014-0.792 0.592-1.292 1.425-1.301 0.886-0.009 1.771-0.002 2.657-0.002 0.844 0 1.688 0.003 2.532-0.001 0.644-0.004 1.166 0.232 1.585 0.73 1.027 1.219 2.066 2.428 3.1 3.641 0.114 0.134 0.23 0.266 0.362 0.418 0.424-0.306 0.842-0.593 1.244-0.9 0.329-0.25 0.685-0.371 1.102-0.361 0.614 0.015 1.229 0.013 1.844 0.001 0.014-0 0.030-0.001 0.047-0.001 0.367 0 0.706 0.119 0.98 0.321l-0.005-0.003c0.532 0.378 1.075 0.742 1.627 1.122l2.202-3.332c0.167-0.252 0.341-0.499 0.498-0.756 0.349-0.577 0.869-0.867 1.528-0.873 1.511-0.014 3.022-0.018 4.532 0 0.747 0.008 1.211 0.497 1.343 1.228 0.248 1.361 0.539 2.714 0.805 4.072 0.189 0.968-0.145 1.532-1.113 1.851 0.15 0.512 0.301 1.026 0.451 1.54 0.035 0.12 0.079 0.238 0.101 0.36 0.060 0.336-0.101 0.557-0.442 0.577-0.301 0.018-0.604 0.011-0.906-0.002-0.188-0.008-0.251 0.066-0.276 0.246-0.186 1.33-0.381 2.658-0.572 3.988-0.072 0.506-0.194 0.614-0.713 0.614h-2.062c-0.504 0-0.631-0.103-0.703-0.59-0.195-1.328-0.386-2.658-0.579-3.987-0.013-0.091-0.035-0.18-0.056-0.284-0.3 0-0.58 0.006-0.86-0.002-0.382-0.009-0.561-0.236-0.492-0.618 0.212-1.178 0.425-2.356 0.636-3.533 0.016-0.089 0.020-0.181 0.042-0.374-0.473 0.503-0.886 0.936-1.288 1.379-0.040 0.044-0.026 0.156-0.010 0.23 0.094 0.433-0.048 0.782-0.383 1.053s-0.701 0.282-1.083 0.098c-0.617-0.297-1.235-0.59-1.902-0.908-0.034 0.622-0.063 1.201-0.096 1.778-0.098 1.736-0.196 3.474-0.3 5.21-0.026 0.423-0.166 0.544-0.591 0.545-0.802 0.003-1.604 0.003-2.407 0-0.426-0.001-0.57-0.142-0.595-0.58-0.125-2.236-0.248-4.472-0.372-6.709-0.004-0.062-0.013-0.122-0.025-0.25zM29.065 23.428c-0.039-0.142-0.067-0.251-0.099-0.358l-1.316-4.426c-0.012-0.040-0.022-0.080-0.032-0.121-0.082-0.315 0.024-0.553 0.28-0.635s0.503 0.057 0.595 0.358c0.252 0.826 0.504 1.652 0.736 2.483 0.070 0.25 0.191 0.235 0.361 0.14 0.273-0.152 0.256-0.395 0.203-0.656-0.28-1.376-0.556-2.753-0.832-4.131-0.072-0.358-0.176-0.455-0.546-0.456-1.438-0.002-2.875 0-4.312-0.001-0.373 0-0.649 0.145-0.858 0.466-0.841 1.292-1.695 2.574-2.544 3.86-0.050 0.077-0.095 0.157-0.154 0.254 0.198 0.133 0.382 0.258 0.572 0.386 0.095-0.098 0.168-0.172 0.239-0.247 0.716-0.757 1.432-1.514 2.147-2.272 0.174-0.185 0.371-0.277 0.611-0.144 0.221 0.122 0.268 0.318 0.222 0.561-0.195 1.054-0.382 2.109-0.571 3.164-0.102 0.571-0.199 1.143-0.306 1.755 0.256 0 0.473-0.004 0.689 0.001 0.356 0.009 0.489 0.12 0.544 0.468 0.086 0.546 0.164 1.091 0.244 1.637 0.133 0.904 0.266 1.808 0.4 2.725h0.352v-0.843c0-1.094-0.003-2.188 0.003-3.283 0.002-0.307 0.178-0.492 0.443-0.501 0.281-0.009 0.463 0.178 0.481 0.497 0.004 0.072 0.001 0.146 0.001 0.219v3.905h0.426c0.214-1.451 0.424-2.882 0.636-4.312 0.056-0.38 0.19-0.492 0.583-0.495 0.257-0.002 0.515 0 0.801 0v0.001zM7.116 28.242c0.099-1.164 0.212-2.294 0.288-3.426 0.106-1.599 0.201-3.2 0.272-4.801 0.035-0.801 0.010-1.604 0.003-2.407-0.002-0.256 0.026-0.49 0.296-0.594 0.252-0.096 0.432 0.034 0.604 0.211 0.771 0.791 1.549 1.575 2.324 2.362 0.262 0.266 0.522 0.534 0.79 0.809l0.484-0.352c-0.040-0.053-0.068-0.096-0.1-0.134-1.114-1.309-2.23-2.617-3.342-3.927-0.219-0.258-0.493-0.36-0.827-0.358-1.708 0.005-3.418 0.002-5.126 0.003-0.463 0-0.593 0.13-0.593 0.593-0.001 1.313 0 2.626 0 3.939 0 0.687 0.182 0.842 0.91 0.746v-3.208c0-0.104-0.003-0.209 0.010-0.311 0.033-0.254 0.184-0.394 0.439-0.397 0.27-0.002 0.425 0.144 0.457 0.412 0.010 0.083 0.009 0.167 0.006 0.25-0.111 3.048 0.176 6.078 0.438 9.108 0.042 0.494 0.091 0.988 0.135 1.476h0.79v-2.578c0-0.583-0.004-1.168 0.002-1.751 0.003-0.317 0.194-0.523 0.462-0.522 0.267 0 0.448 0.206 0.464 0.523 0.004 0.072 0.001 0.146 0.001 0.219v4.116l0.815-0.001zM15.828 28.242v-0.368c0-0.834-0.004-1.667 0.002-2.5 0.003-0.344 0.188-0.554 0.463-0.554 0.276 0 0.456 0.212 0.457 0.554 0.004 0.843 0.001 1.687 0.001 2.53v0.328h0.447c0.058-0.988 0.121-1.954 0.172-2.92 0.074-1.394 0.137-2.788 0.212-4.181 0.034-0.641 0.301-0.794 0.873-0.522 0.723 0.344 1.446 0.689 2.169 1.031 0.091 0.042 0.188 0.070 0.282 0.104l0.042-0.081c-0.121-0.106-0.232-0.225-0.362-0.316-0.211-0.176-1.174-0.846-2.142-1.509l-0.814-0.527c-0.139-0.091-0.307-0.148-0.488-0.155l-0.002-0c-0.635-0.018-1.27-0.012-1.905-0.004-0.12 0.002-0.262 0.018-0.355 0.084-1.711 1.208-2.657 1.9-3.598 2.599l0.692-0.491c-0.065 0.047-0.088 0.152-0.132 0.23 0.148 0.011 0.241-0.026 0.331-0.068 0.689-0.317 1.376-0.64 2.068-0.952 0.428-0.194 0.728-0.011 0.752 0.449 0.087 1.685 0.17 3.369 0.259 5.054 0.038 0.725 0.090 1.449 0.136 2.183h0.438l0.001 0.001zM5.652 9.361c0.005-0 0.011-0 0.017-0 1.286 0 2.328 1.042 2.328 2.328 0 0.003 0 0.005 0 0.008v-0c0 1.29-1.063 2.352-2.346 2.343-1.274-0.008-2.325-1.058-2.334-2.329-0.010-1.288 1.044-2.346 2.337-2.348l-0.001-0.001zM7.071 11.691c0-0.002 0-0.005 0-0.008 0-0.774-0.627-1.401-1.401-1.402h-0c-0.005-0-0.012-0-0.018-0-0.778 0-1.408 0.631-1.408 1.408 0 0.004 0 0.007 0 0.011v-0.001c0.001 0.772 0.633 1.411 1.403 1.417 0.784 0.006 1.425-0.636 1.424-1.425zM23.8 11.68c0.006-1.299 1.050-2.327 2.357-2.318 1.278 0.008 2.319 1.056 2.318 2.334 0 1.286-1.066 2.349-2.348 2.343-1.29-0.006-2.332-1.062-2.327-2.358zM26.123 10.282c-0.776 0.004-1.405 0.633-1.408 1.409v0c-0.003 0.783 0.647 1.432 1.428 1.426 0.768-0.006 1.408-0.648 1.411-1.415 0.004-0.783-0.644-1.426-1.432-1.42h0.001z"></path>
<path d="M18.133 15.974c-0.012 1.048-0.858 1.864-1.916 1.846-1.026-0.017-1.855-0.874-1.838-1.901 0.016-1.022 0.873-1.862 1.894-1.854 1.042 0.007 1.873 0.86 1.861 1.91v-0.001zM17.217 15.955c0.007-0.518-0.419-0.955-0.939-0.964-0.005-0-0.011-0-0.018-0-0.518 0-0.939 0.412-0.954 0.926l-0 0.001c-0 0.007-0 0.016-0 0.024 0 0.527 0.425 0.954 0.951 0.958h0c0.518 0.002 0.954-0.428 0.96-0.946z"></path>
</symbol>
<symbol id="statistics_icon_1" viewBox="0 0 32 32">
<path d="M6.95 12.529c-0.255 0-0.452 0.008-0.648-0.002-0.34-0.017-0.498-0.171-0.5-0.507-0.005-0.938-0.012-1.876 0.003-2.812 0.013-0.76 0.581-1.372 1.353-1.416 0.737-0.041 1.478-0.018 2.217-0.020 0.592-0.002 1.184 0 1.813 0-0.464-1.997-0.042-3.728 1.442-5.131 1.036-0.979 2.296-1.412 3.716-1.324 3.067 0.189 5.396 3.191 4.504 6.455h0.342c1.125 0 2.25-0.002 3.375 0 1.086 0.002 1.677 0.598 1.678 1.685 0 0.812 0.001 1.625 0 2.437 0 0.485-0.147 0.631-0.634 0.636-0.154 0.002-0.308 0-0.512 0 0.066 0.203 0.123 0.365 0.173 0.528 0.232 0.764 0.475 1.526 0.686 2.296 0.064 0.236 0.050 0.497 0.050 0.746 0.002 3.168 0.012 6.334-0.002 9.502-0.012 2.554-1.732 4.621-4.236 5.111-0.335 0.066-0.682 0.092-1.024 0.092-3.146 0.006-6.292 0.006-9.438 0.003-2.64-0.003-4.743-1.752-5.216-4.346-0.063-0.346-0.077-0.704-0.077-1.058-0.006-2.823 0.018-5.646-0.013-8.47-0.014-1.239 0.148-2.425 0.638-3.565 0.11-0.256 0.193-0.524 0.309-0.84l0.001-0.001zM16.026 12.549c-2.552 0-5.104 0.006-7.656-0.008-0.327-0.002-0.502 0.069-0.597 0.407-0.136 0.479-0.373 0.93-0.496 1.411-0.151 0.59-0.317 1.198-0.324 1.8-0.032 3.146-0.022 6.292-0.012 9.438 0.008 2.399 1.895 4.277 4.292 4.282 3.188 0.006 6.375 0.004 9.562-0.003 0.32 0 0.648-0.028 0.959-0.099 2.021-0.462 3.339-2.155 3.344-4.294 0.007-2.562-0.046-5.127 0.019-7.688 0.043-1.708-0.161-3.34-0.875-4.895-0.008-0.019-0.018-0.038-0.022-0.058-0.042-0.235-0.174-0.299-0.413-0.298-2.594 0.010-5.188 0.006-7.781 0.006v0.001zM25.319 11.597v-2.086c0-0.664-0.159-0.821-0.835-0.821h-8.741c-2.769 0-5.538-0.001-8.308 0-0.519 0-0.715 0.198-0.72 0.72-0.004 0.406-0.001 0.812-0.001 1.218v0.969h18.604zM16.569 4.757c-0.028 0.010-0.056 0.020-0.084 0.030 0 0.306 0.013 0.614-0.004 0.921-0.012 0.205 0.051 0.314 0.248 0.398 0.62 0.264 1.011 0.718 1.080 1.41 0.008 0.079 0.016 0.158 0.028 0.255 0.602 0 1.185-0.008 1.766 0.004 0.207 0.004 0.319-0.068 0.337-0.268 0.048-0.556 0.177-1.121 0.119-1.666-0.249-2.383-2.508-3.998-4.872-3.53-2.299 0.456-3.756 2.876-3.112 5.154 0.064 0.227 0.161 0.317 0.408 0.312 0.811-0.016 1.624-0.006 2.436-0.006h0.626v-1.078c-0.648-0.28-1.248-0.625-1.242-1.457 0.006-0.831 0.544-1.255 1.246-1.516 0.005-0.050 0.009-0.081 0.011-0.112 0.016-0.374 0.157-0.555 0.44-0.566 0.286-0.011 0.426 0.155 0.495 0.523 0.018 0.092 0.124 0.198 0.214 0.238 0.438 0.195 0.776 0.484 0.949 0.939 0.106 0.282 0.015 0.524-0.224 0.635s-0.469 0.012-0.619-0.256c-0.072-0.128-0.163-0.244-0.246-0.365l-0.001 0.001zM15.535 5.638v-0.882c-0.425 0.305-0.423 0.623 0 0.882zM16.5 7.75h0.369c0.038-0.323-0.064-0.545-0.369-0.705v0.705z"></path>
<path d="M20.090 27.137c0 0.347 0.005 0.658-0.001 0.966-0.012 0.658-0.375 1.034-1.025 1.034-2.582 0.005-5.163 0.005-7.745 0-0.654-0.001-1.020-0.376-1.030-1.028-0.004-0.281-0.004-0.562 0-0.843 0.009-0.668 0.377-1.030 1.052-1.038 0.249-0.003 0.497 0 0.79 0 0-0.324-0.002-0.622 0-0.918 0.004-0.702 0.378-1.076 1.082-1.077 2.551-0.002 5.101-0.002 7.652 0 0.711 0 1.072 0.364 1.075 1.074 0.001 0.302 0.007 0.604-0.003 0.906-0.017 0.518-0.393 0.9-0.912 0.921-0.298 0.013-0.597 0.003-0.936 0.003zM19.158 27.162h-0.38c-1.79 0-3.58 0.002-5.37-0.001-0.645-0.001-1.29-0.019-1.935-0.015-0.090 0-0.252 0.076-0.257 0.126-0.024 0.305-0.012 0.614-0.012 0.921h7.954v-1.031zM21.002 25.162h-7.924v1.032h7.924v-1.032zM21.028 18.372c0.012 2.776-2.242 5.050-5.004 5.052-2.751 0.002-5.008-2.251-5.021-5.009-0.012-2.786 2.22-5.047 4.993-5.056 2.782-0.009 5.020 2.22 5.032 5.012zM16.015 14.273c-2.256 0.004-4.083 1.842-4.085 4.107-0.001 2.279 1.837 4.122 4.106 4.117 2.242-0.006 4.082-1.867 4.077-4.122-0.005-2.254-1.855-4.105-4.098-4.101z"></path>
<path d="M15.559 19.933c0-0.352 0.007-0.704-0.007-1.056-0.002-0.069-0.080-0.151-0.145-0.197-0.101-0.071-0.224-0.108-0.332-0.171-0.479-0.282-0.793-0.669-0.776-1.258 0.016-0.587 0.319-0.997 0.808-1.284 0.134-0.078 0.282-0.13 0.438-0.2 0.005-0.072 0.010-0.154 0.017-0.236 0.022-0.268 0.172-0.431 0.434-0.445 0.265-0.015 0.466 0.14 0.468 0.398 0.004 0.27 0.152 0.336 0.348 0.423 0.385 0.17 0.672 0.451 0.831 0.848 0.121 0.301 0.040 0.559-0.203 0.668s-0.481 0-0.635-0.281c-0.066-0.119-0.156-0.225-0.236-0.336-0.026 0.009-0.053 0.018-0.080 0.028 0 0.368-0.004 0.737 0.004 1.105 0.001 0.046 0.055 0.103 0.1 0.133 0.068 0.046 0.15 0.069 0.225 0.106 0.554 0.269 0.939 0.671 0.924 1.323-0.016 0.66-0.377 1.111-0.968 1.37-0.188 0.082-0.3 0.154-0.305 0.391-0.007 0.277-0.23 0.447-0.483 0.419-0.266-0.028-0.405-0.19-0.425-0.455-0.006-0.073-0.008-0.145-0.008-0.169-0.295-0.195-0.577-0.352-0.821-0.554-0.138-0.113-0.235-0.291-0.315-0.456-0.156-0.324-0.072-0.607 0.188-0.718 0.258-0.111 0.473 0.002 0.644 0.321 0.061 0.113 0.151 0.211 0.228 0.316l0.083-0.036-0.002 0.002zM15.531 17.676v-0.874c-0.422 0.313-0.417 0.639 0 0.874zM16.516 19.085v0.874c0.411-0.324 0.408-0.622 0-0.874z"></path>
</symbol>
<symbol id="icon-arrow" viewBox="0 0 32 32">
<path  d="M11.094 7.093c0.568-0.568 1.489-0.568 2.057 0l7.758 7.758c0.568 0.568 0.568 1.489 0 2.057l-7.758 7.758c-0.568 0.568-1.489 0.568-2.057 0s-0.568-1.489 0-2.057l6.729-6.729-6.729-6.729c-0.568-0.568-0.568-1.489 0-2.057z"></path>
</symbol>
<symbol id="icon-arrow-small"  viewBox="0 0 24 24">
<path  d="M8.31952 5.31952C8.74555 4.89349 9.43627 4.89349 9.8623 5.31952L15.6805 11.1377C16.1065 11.5637 16.1065 12.2545 15.6805 12.6805L9.8623 18.4987C9.43627 18.9247 8.74555 18.9247 8.31952 18.4987C7.89349 18.0726 7.89349 17.3819 8.31952 16.9559L13.3663 11.9091L8.31952 6.8623C7.89349 6.43627 7.89349 5.74555 8.31952 5.31952Z" />
</symbol>
<symbol id="icon-slider-arrow" viewBox="0 0 32 32">
<path d="M20.212 16.089l-10.347-10.544c-0.085-0.085-0.153-0.186-0.198-0.297s-0.069-0.23-0.068-0.35c0.001-0.12 0.026-0.238 0.073-0.348s0.116-0.21 0.203-0.293c0.087-0.084 0.189-0.149 0.301-0.193s0.232-0.066 0.353-0.063 0.24 0.028 0.351 0.077c0.111 0.048 0.21 0.118 0.294 0.205l10.966 11.176c0.166 0.169 0.259 0.396 0.259 0.632s-0.093 0.463-0.259 0.632l-10.966 11.176c-0.083 0.087-0.183 0.156-0.294 0.204s-0.23 0.074-0.351 0.077c-0.121 0.002-0.241-0.019-0.353-0.063s-0.215-0.11-0.301-0.193c-0.087-0.084-0.156-0.183-0.203-0.293s-0.072-0.229-0.073-0.348c-0.001-0.12 0.022-0.239 0.068-0.35s0.113-0.212 0.198-0.297l10.347-10.544z"></path>
</symbol>
<symbol id="icon-calendar" viewBox="0 0 32 32">
<path d="M16.121 24.482c0.24 0 0.474-0.071 0.673-0.204s0.355-0.323 0.446-0.544c0.092-0.222 0.116-0.465 0.069-0.7s-0.162-0.451-0.332-0.621c-0.17-0.169-0.386-0.285-0.621-0.332s-0.479-0.023-0.7 0.069c-0.222 0.092-0.411 0.247-0.544 0.447s-0.204 0.434-0.204 0.673c0 0.321 0.128 0.63 0.355 0.857s0.536 0.355 0.857 0.355zM22.182 24.482c0.24 0 0.474-0.071 0.673-0.204s0.355-0.323 0.446-0.544c0.092-0.222 0.116-0.465 0.069-0.7s-0.162-0.451-0.332-0.621c-0.17-0.169-0.386-0.285-0.621-0.332s-0.479-0.023-0.7 0.069c-0.222 0.092-0.411 0.247-0.544 0.447s-0.204 0.434-0.204 0.673c0 0.321 0.128 0.63 0.355 0.857s0.536 0.355 0.857 0.355zM22.182 19.634c0.24 0 0.474-0.071 0.673-0.204s0.355-0.323 0.446-0.544c0.092-0.221 0.116-0.465 0.069-0.7s-0.162-0.451-0.332-0.621c-0.17-0.17-0.386-0.285-0.621-0.332s-0.479-0.023-0.7 0.069c-0.222 0.092-0.411 0.247-0.544 0.446s-0.204 0.434-0.204 0.673c0 0.321 0.128 0.63 0.355 0.857s0.536 0.355 0.857 0.355zM16.121 19.634c0.24 0 0.474-0.071 0.673-0.204s0.355-0.323 0.446-0.544c0.092-0.221 0.116-0.465 0.069-0.7s-0.162-0.451-0.332-0.621c-0.17-0.17-0.386-0.285-0.621-0.332s-0.479-0.023-0.7 0.069c-0.222 0.092-0.411 0.247-0.544 0.446s-0.204 0.434-0.204 0.673c0 0.321 0.128 0.63 0.355 0.857s0.536 0.355 0.857 0.355zM24.606 5.088h-1.212v-1.212c0-0.321-0.128-0.63-0.355-0.857s-0.536-0.355-0.857-0.355-0.63 0.128-0.857 0.355c-0.227 0.227-0.355 0.536-0.355 0.857v1.212h-9.697v-1.212c0-0.321-0.128-0.63-0.355-0.857s-0.536-0.355-0.857-0.355c-0.321 0-0.63 0.128-0.857 0.355s-0.355 0.536-0.355 0.857v1.212h-1.212c-0.964 0-1.889 0.383-2.571 1.065s-1.065 1.607-1.065 2.571v16.97c0 0.964 0.383 1.889 1.065 2.571s1.607 1.065 2.571 1.065h16.97c0.964 0 1.889-0.383 2.571-1.065s1.065-1.607 1.065-2.571v-16.97c0-0.964-0.383-1.889-1.065-2.571s-1.607-1.065-2.571-1.065zM25.818 25.694c0 0.321-0.128 0.63-0.355 0.857s-0.536 0.355-0.857 0.355h-16.97c-0.321 0-0.63-0.128-0.857-0.355s-0.355-0.536-0.355-0.857v-10.909h19.394v10.909zM25.818 12.361h-19.394v-3.636c0-0.321 0.128-0.63 0.355-0.857s0.536-0.355 0.857-0.355h1.212v1.212c0 0.321 0.128 0.63 0.355 0.857s0.536 0.355 0.857 0.355c0.321 0 0.63-0.128 0.857-0.355s0.355-0.536 0.355-0.857v-1.212h9.697v1.212c0 0.321 0.128 0.63 0.355 0.857s0.536 0.355 0.857 0.355 0.63-0.128 0.857-0.355c0.227-0.227 0.355-0.536 0.355-0.857v-1.212h1.212c0.322 0 0.63 0.128 0.857 0.355s0.355 0.536 0.355 0.857v3.636zM10.061 19.634c0.24 0 0.474-0.071 0.673-0.204s0.355-0.323 0.446-0.544c0.092-0.221 0.116-0.465 0.069-0.7s-0.162-0.451-0.332-0.621c-0.17-0.17-0.386-0.285-0.621-0.332s-0.479-0.023-0.7 0.069c-0.221 0.092-0.411 0.247-0.544 0.446s-0.204 0.434-0.204 0.673c0 0.321 0.128 0.63 0.355 0.857s0.536 0.355 0.857 0.355zM10.061 24.482c0.24 0 0.474-0.071 0.673-0.204s0.355-0.323 0.446-0.544c0.092-0.222 0.116-0.465 0.069-0.7s-0.162-0.451-0.332-0.621c-0.17-0.169-0.386-0.285-0.621-0.332s-0.479-0.023-0.7 0.069c-0.221 0.092-0.411 0.247-0.544 0.447s-0.204 0.434-0.204 0.673c0 0.321 0.128 0.63 0.355 0.857s0.536 0.355 0.857 0.355z"></path>
</symbol>
</defs>
</svg>
