<svg aria-hidden="true" style="position: absolute; width: 0; height: 0; overflow: hidden;" version="1.1" xmlns="http://www.w3.org/2000/svg" xmlns:xlink="http://www.w3.org/1999/xlink">
<defs>
<symbol id="icon-user" viewBox="0 0 30 32">
<path d="M7.68 8.762c0-4.173 3.383-7.556 7.556-7.556s7.556 3.383 7.556 7.556v0c0 4.173-3.383 7.556-7.556 7.556s-7.556-3.383-7.556-7.556v0zM15.238 3.874c-2.7 0-4.888 2.189-4.888 4.888s2.189 4.888 4.888 4.888v0c2.7 0 4.888-2.189 4.888-4.888s-2.189-4.888-4.888-4.888v0zM8.125 21.65c-2.209 0-4 1.791-4 4v0 2.114c0 0.030 0.023 0.059 0.055 0.064 7.322 1.196 14.79 1.196 22.112 0 0.031-0.005 0.055-0.032 0.055-0.064v-2.114c0-2.209-1.791-4-4-4v0h-0.605c-0.049 0-0.096 0.009-0.14 0.024l0.003-0.001-1.539 0.503c-1.442 0.487-3.103 0.768-4.829 0.768s-3.387-0.281-4.939-0.8l0.11 0.032-1.539-0.503c-0.041-0.014-0.088-0.022-0.137-0.023h-0.607zM1.458 25.65c0-3.682 2.985-6.667 6.667-6.667v0h0.606c0.328 0 0.654 0.052 0.965 0.154l1.539 0.503c1.195 0.404 2.57 0.637 4.001 0.637s2.806-0.233 4.092-0.663l-0.091 0.026 1.539-0.503c0.312-0.102 0.637-0.152 0.966-0.152h0.605c3.681 0 6.666 2.984 6.667 6.665v2.114c0 1.338-0.969 2.481-2.292 2.697-3.453 0.593-7.43 0.931-11.486 0.931s-8.033-0.339-11.904-0.989l0.418 0.058c-1.308-0.219-2.292-1.343-2.292-2.696 0-0 0-0 0-0.001v0-2.114z"></path>
</symbol>
<symbol id="icon-burger-button" viewBox="0 0 44 32">
<path  d="M42.487 16c0-1.105-0.896-2-2-2h-37.334c-1.105 0-2 0.895-2 2s0.895 2 2 2v0h37.334c1.104 0 2-0.896 2-2zM42.487 2.666c0-1.104-0.896-2-2-2h-37.334c-1.105 0-2 0.895-2 2s0.895 2 2 2v0h37.334c1.104 0 2-0.895 2-2zM42.487 29.334c0-1.105-0.896-2-2-2h-37.334c-1.105 0-2 0.895-2 2s0.895 2 2 2v0h37.334c1.104 0 2-0.896 2-2z"></path>
</symbol>
<symbol id="icon-btn-arrow" viewBox="0 0 56 32">
<path d="M53.996 30.72c-0.789 0.791-1.881 1.28-3.086 1.28s-2.297-0.489-3.086-1.28l-20.188-20.184-20.188 20.184c-0.789 0.789-1.88 1.277-3.084 1.277-2.409 0-4.361-1.953-4.361-4.361 0-1.204 0.488-2.295 1.277-3.084l23.272-23.272c0.789-0.79 1.88-1.278 3.084-1.278s2.295 0.488 3.084 1.278l23.28 23.272c0.789 0.79 1.276 1.88 1.276 3.084s-0.488 2.294-1.276 3.084l0-0z"></path>
</symbol>
<symbol id="icon-cross" viewBox="0 0 32 32">
<path d="M24.48 26.373l-8.48-8.493-8.48 8.493-1.893-1.893 8.493-8.48-8.493-8.48 1.893-1.893 8.48 8.493 8.48-8.48 1.88 1.88-8.48 8.48 8.48 8.48-1.88 1.893z"></path>
</symbol>
</defs>
</svg>
