<svg width="20" height="16" viewBox="0 0 20 16" fill="none" xmlns="http://www.w3.org/2000/svg">
<path fill-rule="evenodd" clip-rule="evenodd" d="M0 5.27426C0 2.2944 2.61423 0 5.68276 0C7.26452 0 8.65638 0.74167 9.65517 1.70133C10.654 0.74167 12.0458 0 13.6276 0C16.6961 0 19.3103 2.2944 19.3103 5.27426C19.3103 7.3155 18.4399 9.11056 17.2339 10.6279C16.0299 12.1426 14.4551 13.4282 12.9473 14.4728C12.3714 14.8718 11.7887 15.2398 11.2555 15.5114C10.7548 15.7664 10.179 16 9.65517 16C9.13132 16 8.55558 15.7664 8.05487 15.5114C7.52163 15.2398 6.93899 14.8718 6.36307 14.4728C4.85523 13.4282 3.28041 12.1426 2.07649 10.6279C0.870489 9.11056 0 7.3155 0 5.27426ZM5.68276 1.65517C3.38842 1.65517 1.65517 3.34245 1.65517 5.27426C1.65517 6.82294 2.31259 8.26483 3.37224 9.59803C4.43397 10.9339 5.86254 12.1125 7.30565 13.1122C7.85172 13.4905 8.36606 13.8124 8.80602 14.0365C9.27851 14.2771 9.55218 14.3448 9.65517 14.3448C9.75816 14.3448 10.0318 14.2771 10.5043 14.0365C10.9443 13.8124 11.4586 13.4905 12.0047 13.1122C13.4478 12.1125 14.8764 10.9339 15.9381 9.59803C16.9978 8.26482 17.6552 6.82294 17.6552 5.27426C17.6552 3.34245 15.9219 1.65517 13.6276 1.65517C12.3099 1.65517 11.0795 2.4424 10.3112 3.44157C10.1546 3.64531 9.91217 3.76471 9.65517 3.76471C9.39817 3.76471 9.15575 3.64531 8.9991 3.44157C8.23085 2.4424 7.00044 1.65517 5.68276 1.65517Z" fill="#828897"/>
</svg>
